<svg xmlns="http://www.w3.org/2000/svg" version="1.1" xmlns:xlink="http://www.w3.org/1999/xlink" xmlns:svgjs="http://svgjs.dev/svgjs" width="1000" height="419" viewBox="0 0 1000 419"><g transform="matrix(1,0,0,1,-0.6060579482231674,0.6190127847342239)"><svg viewBox="0 0 396 166" data-background-color="#ffffff" preserveAspectRatio="xMidYMid meet" height="419" width="1000" xmlns="http://www.w3.org/2000/svg" xmlns:xlink="http://www.w3.org/1999/xlink"><g id="tight-bounds" transform="matrix(1,0,0,1,0.24000105250360093,-0.24523965727938446)"><svg viewBox="0 0 395.52 166.49048099920273" height="166.49048099920273" width="395.52"><g><svg viewBox="0 0 395.52 166.49048099920273" height="166.49048099920273" width="395.52"><g><svg viewBox="0 0 395.52 166.49048099920273" height="166.49048099920273" width="395.52"><g id="textblocktransform"><svg viewBox="0 0 395.52 166.49048099920273" height="166.49048099920273" width="395.52" id="textblock"><g><svg viewBox="0 0 395.52 166.49048099920273" height="166.49048099920273" width="395.52"><g transform="matrix(1,0,0,1,0,0)"><svg width="395.52" viewBox="1.4500010013580322 -35.79999923706055 188.15000915527344 75.4000015258789" height="166.49048099920273" data-palette-color="#0080ff"><svg></svg><svg></svg><g class="undefined-text-0" data-fill-palette-color="primary" id="text-0"><path xmlns="http://www.w3.org/2000/svg" d="M21.2 0.8c-3.767 0-7.15-0.783-10.15-2.35-3-1.567-5.35-3.743-7.05-6.53-1.7-2.78-2.55-5.92-2.55-9.42v0c0-3.5 0.85-6.643 2.55-9.43 1.7-2.78 4.05-4.953 7.05-6.52 3-1.567 6.383-2.35 10.15-2.35v0c3.767 0 7.15 0.783 10.15 2.35 3 1.567 5.35 3.74 7.05 6.52 1.7 2.787 2.55 5.93 2.55 9.43v0c0 3.5-0.85 6.64-2.55 9.42-1.7 2.787-4.05 4.963-7.05 6.53-3 1.567-6.383 2.35-10.15 2.35zM21.2-8.75c1.467 0 2.793-0.36 3.98-1.08 1.18-0.713 2.12-1.73 2.82-3.05 0.7-1.313 1.05-2.853 1.05-4.62v0c0-1.767-0.35-3.31-1.05-4.63-0.7-1.313-1.64-2.33-2.82-3.05-1.187-0.713-2.513-1.07-3.98-1.07v0c-1.467 0-2.79 0.357-3.97 1.07-1.187 0.72-2.13 1.737-2.83 3.05-0.7 1.32-1.05 2.863-1.05 4.63v0c0 1.767 0.35 3.307 1.05 4.62 0.7 1.32 1.643 2.337 2.83 3.05 1.18 0.72 2.503 1.08 3.97 1.08zM63.35 0.8c-3.7 0-7.033-0.777-10-2.33-2.967-1.547-5.29-3.713-6.97-6.5-1.687-2.78-2.53-5.937-2.53-9.47v0c0-3.533 0.843-6.693 2.53-9.48 1.68-2.78 4.003-4.947 6.97-6.5 2.967-1.547 6.3-2.32 10-2.32v0c3.4 0 6.433 0.6 9.1 1.8 2.667 1.2 4.867 2.933 6.6 5.2v0l-7.45 6.65c-2.167-2.733-4.717-4.1-7.65-4.1v0c-2.467 0-4.45 0.79-5.95 2.37-1.5 1.587-2.25 3.713-2.25 6.38v0c0 2.667 0.75 4.79 2.25 6.37 1.5 1.587 3.483 2.38 5.95 2.38v0c2.933 0 5.483-1.367 7.65-4.1v0l7.45 6.65c-1.733 2.267-3.933 4-6.6 5.2-2.667 1.2-5.7 1.8-9.1 1.8zM110.35-10.85l3.45 8.55c-1.867 0.967-4.117 1.723-6.75 2.27-2.633 0.553-5.317 0.83-8.05 0.83v0c-3.933 0-7.273-0.46-10.02-1.38-2.753-0.913-4.83-2.193-6.23-3.84-1.4-1.653-2.1-3.547-2.1-5.68v0c0-1.767 0.477-3.35 1.43-4.75 0.947-1.4 2.303-2.483 4.07-3.25v0c-1.333-0.733-2.34-1.693-3.02-2.88-0.687-1.18-1.03-2.487-1.03-3.92v0c0-1.967 0.643-3.777 1.93-5.43 1.28-1.647 3.247-2.97 5.9-3.97 2.647-1 5.903-1.5 9.77-1.5v0c2.367 0 4.693 0.207 6.98 0.62 2.28 0.42 4.32 0.98 6.12 1.68v0l-3.2 8.6c-3.133-1.267-6.283-1.9-9.45-1.9v0c-2.067 0-3.607 0.233-4.62 0.7-1.02 0.467-1.53 1.117-1.53 1.95v0c0 0.7 0.25 1.233 0.75 1.6 0.5 0.367 1.333 0.55 2.5 0.55v0h10.25v8.7h-11.05c-1.3 0-2.273 0.207-2.92 0.62-0.653 0.42-0.98 1.013-0.98 1.78v0c0 1.8 2.3 2.7 6.9 2.7v0c1.767 0 3.643-0.243 5.63-0.73 1.98-0.48 3.737-1.12 5.27-1.92zM132.65-35.8c3.4 0 6.4 0.677 9 2.03 2.6 1.347 4.627 3.31 6.08 5.89 1.447 2.587 2.17 5.663 2.17 9.23v0 18.65h-11.8v-7.05h-11.1v7.05h-11.6v-18.65c0-3.567 0.727-6.643 2.18-9.23 1.447-2.58 3.47-4.543 6.07-5.89 2.6-1.353 5.6-2.03 9-2.03zM127-15.95h11.1v-3.7c0-2.167-0.507-3.81-1.52-4.93-1.02-1.113-2.363-1.67-4.03-1.67v0c-1.667 0-3.007 0.557-4.02 1.67-1.02 1.12-1.53 2.763-1.53 4.93v0zM176.55-35.8c4.133 0 7.343 1.35 9.63 4.05 2.28 2.7 3.42 6.533 3.42 11.5v0 20.25h-11.8v-19.9c0-2.133-0.457-3.727-1.37-4.78-0.92-1.047-2.197-1.57-3.83-1.57v0c-1.633 0-2.957 0.567-3.97 1.7-1.02 1.133-1.53 2.817-1.53 5.05v0 19.5h-11.8v-35h11.45v3.75c2.367-3.033 5.633-4.55 9.8-4.55z" fill="#0080ff" fill-rule="nonzero" stroke="none" stroke-width="1" stroke-linecap="butt" stroke-linejoin="miter" stroke-miterlimit="10" stroke-dasharray="" stroke-dashoffset="0" font-family="none" font-weight="none" font-size="none" text-anchor="none" style="mix-blend-mode: normal" data-fill-palette-color="primary" opacity="1"></path><path xmlns="http://www.w3.org/2000/svg" d="M21.4 13.35c-4.7 0-7.05 2-7.05 6v0 0.15h12.4v8.9h-12.4v11.2h-11.8v-20c0-5.067 1.55-8.967 4.65-11.7 3.1-2.733 7.5-4.1 13.2-4.1v0c2.033 0 3.95 0.19 5.75 0.57 1.8 0.387 3.35 0.913 4.65 1.58v0l-3.4 8.9c-0.933-0.5-1.923-0.877-2.97-1.13-1.053-0.247-2.063-0.37-3.03-0.37zM55.3 13.5h-5.25v17.2h5.25v8.9h-22.3v-8.9h5.25v-17.2h-5.25v-8.9h22.3zM59.9 39.6v-35h11.8v25.85h15.8v9.15zM132.7 3.8c4.167 0 7.417 1.25 9.75 3.75 2.333 2.5 3.5 6.1 3.5 10.8v0 21.25h-11.8v-20.9c0-1.733-0.45-3.06-1.35-3.98-0.9-0.913-2.133-1.37-3.7-1.37v0c-1.6 0-2.873 0.49-3.82 1.47-0.953 0.987-1.43 2.413-1.43 4.28v0 20.5h-11.8v-20.9c0-1.733-0.407-3.06-1.22-3.98-0.82-0.913-1.963-1.37-3.43-1.37v0c-1.5 0-2.683 0.49-3.55 1.47-0.867 0.987-1.3 2.413-1.3 4.28v0 20.5h-11.8v-35h11.4v3.5c2.167-2.867 5.383-4.3 9.65-4.3v0c4.467 0 7.783 1.567 9.95 4.7v0c1.233-1.567 2.793-2.743 4.68-3.53 1.88-0.78 3.97-1.17 6.27-1.17z" fill="#0023ff" fill-rule="nonzero" stroke="none" stroke-width="1" stroke-linecap="butt" stroke-linejoin="miter" stroke-miterlimit="10" stroke-dasharray="" stroke-dashoffset="0" font-family="none" font-weight="none" font-size="none" text-anchor="none" style="mix-blend-mode: normal" data-fill-palette-color="secondary" opacity="1"></path></g></svg></g></svg></g></svg></g></svg></g></svg></g><defs></defs></svg><rect width="395.52" height="166.49048099920273" fill="none" stroke="none" visibility="hidden"></rect></g></svg></g></svg>